<?xml version="1.0" encoding="UTF-8" standalone="no"?>
<svg
   xmlns:dc="http://purl.org/dc/elements/1.1/"
   xmlns:cc="http://creativecommons.org/ns#"
   xmlns:rdf="http://www.w3.org/1999/02/22-rdf-syntax-ns#"
   xmlns:svg="http://www.w3.org/2000/svg"
   xmlns="http://www.w3.org/2000/svg"
   viewBox="0 0 283.465 354.33124"
   height="354.33124"
   width="283.465"
   xml:space="preserve"
   version="1.1"
   id="svg2"><metadata
     id="metadata8"><rdf:RDF><cc:Work
         rdf:about=""><dc:format>image/svg+xml</dc:format><dc:type
           rdf:resource="http://purl.org/dc/dcmitype/StillImage" /><dc:title></dc:title></cc:Work></rdf:RDF></metadata><defs
     id="defs6"><clipPath
       id="clipPath16"
       clipPathUnits="userSpaceOnUse"><path
         id="path18"
         d="m 0,283.465 226.772,0 L 226.772,0 0,0 0,283.465 Z" /></clipPath><clipPath
       id="clipPath24"
       clipPathUnits="userSpaceOnUse"><path
         id="path26"
         d="m 16.0426,277.759 196.3964,0 0,-270.817 -196.3964,0 0,270.817 z" /></clipPath></defs><g
     transform="matrix(1.25,0,0,-1.25,0,354.33125)"
     id="g10"><g
       id="g12"><g
         clip-path="url(#clipPath16)"
         id="g14"><g
           id="g20"><g
             id="g22" /><g
             id="g28"><g
               id="g30"
               clip-path="url(#clipPath24)"><g
                 id="g32"
                 transform="translate(165.7295,170.4817)"><path
                   id="path34"
                   style="fill:#1d1d1b;fill-opacity:1;fill-rule:nonzero;stroke:none"
                   d="m 0,0 c 0.075,-0.242 0.013,-0.495 -0.176,-0.693 l -8.532,-8.756 c -0.176,-0.176 -0.275,-0.407 -0.275,-0.638 l -0.138,-5.808 c -0.013,-0.33 -0.451,-0.495 -0.728,-0.286 l -5.637,4.312 c -0.251,0.187 -0.376,0.473 -0.338,0.759 l 0.976,7.942 c 0.051,0.407 0.414,0.715 0.877,0.748 l 3.81,0.297 c 0.639,0.044 1.202,0.374 1.49,0.858 l 1.93,3.157 c 0.113,0.176 -0.075,0.385 -0.301,0.33 l -10.475,-2.497 c -0.288,-0.077 -0.55,-0.209 -0.763,-0.396 l -13.081,-11.528 7.655,13.871 c 0.251,0.451 0.602,0.858 1.04,1.199 l 11.615,9.042 c 0.25,0.198 0.613,0.22 0.89,0.055 L -3.208,7.744 C -2.895,7.568 -2.644,7.337 -2.431,7.073 -2.218,6.809 -2.055,6.512 -1.955,6.204 L 0,0 Z" /></g><g
                 id="g36"
                 transform="translate(149.1025,187.0149)"><path
                   id="path38"
                   style="fill:#1d1d1b;fill-opacity:1;fill-rule:nonzero;stroke:none"
                   d="m 0,0 -8.82,-4.653 c -0.364,-0.187 -0.765,0.154 -0.564,0.473 l 2.794,4.334 c 0.288,0.44 0.238,1.001 -0.125,1.408 l -2.506,2.816 c -0.339,0.385 -0.313,0.935 0.063,1.287 l 2.768,2.563 c 0.439,0.407 1.203,0.352 1.554,-0.11 L 0.352,1.375 C 0.702,0.913 0.552,0.286 0,0" /></g><g
                 id="g40"
                 transform="translate(57.8398,140.6828)"><path
                   id="path42"
                   style="fill:#1d1d1b;fill-opacity:1;fill-rule:nonzero;stroke:none"
                   d="m 0,0 c 0.79,0.924 -6.34,4.917 -11.489,12.683 -4.573,6.908 -5.35,13.431 -5.927,18.216 -0.864,7.249 0.164,13.948 2.23,27.335 1.58,10.285 4.022,14.146 0.364,17.567 -5.187,4.829 -9.033,9.625 -12.228,8.129 -1.968,-0.924 -3.433,-2.783 -3.709,-5.203 -1.328,-12.045 -3.17,-26.015 0,-39.369 2.117,-8.888 5.124,-15.246 7.041,-18.865 C -17.992,9.691 -12.667,5.753 -10.374,4.235 -5.901,1.254 -0.639,-0.749 0,0 m 3.083,42.933 c 1.979,2.849 1.804,5.83 1.691,7.788 -0.188,3.256 -1.266,5.038 -2.531,8.162 -3.609,8.888 -2.782,14.014 -4.235,14.102 -1.779,0.121 -3.734,-7.656 -5.062,-12.98 -3.195,-12.694 -5.124,-20.405 -1.691,-22.264 2.881,-1.573 9.108,1.265 11.828,5.192 m 23.253,34.133 c 3.697,6.358 9.861,8.349 9.297,9.284 -0.626,1.034 -8.482,-0.946 -15.636,-4.829 -5.2,-2.816 -9.923,-5.379 -11.84,-10.384 -2.055,-5.368 -0.476,-12.43 2.957,-13.365 3.62,-0.968 9.246,4.829 11.84,9.647 2.293,4.279 1.015,5.599 3.382,9.647 M 38.365,-63.305 c 0.363,0.341 -2.606,2.332 -4.812,6.347 -2.768,5.027 -0.977,7.095 -3.62,10.042 -3.07,3.422 -6.491,1.684 -9.021,4.752 -3.108,3.751 0.989,7.58 -1.805,12.684 -2.13,3.883 -7.355,6.853 -9.635,5.808 -3.082,-1.397 1.967,-8.8 -0.601,-20.076 -1.854,-8.117 -6.19,-11.802 -4.21,-13.738 2.556,-2.519 9.948,3.608 19.859,1.584 8.169,-1.672 13.293,-7.909 13.845,-7.403 m 7.254,170.104 c 0.125,5.115 0.414,16.445 -5.813,18.799 -2.406,0.902 -6.065,0.572 -8.345,-1.276 -0.238,-0.198 -2.506,-2.101 -2.18,-4.466 0.376,-2.629 3.571,-2.948 6.54,-5.731 3.609,-3.388 4.122,-7.832 5.075,-15.928 0.651,-5.522 0.175,-8.228 0.726,-8.294 0.952,-0.11 3.772,7.975 3.997,16.896 m 1.178,-212.377 c 0.965,0.66 14.496,16.5 9.61,28.006 -3.483,8.173 -12.116,9.504 -15.035,6.875 -2.343,-2.123 4.197,-7.029 4.222,-17.446 0,-1.694 -0.163,-11 -7.229,-17.963 -5.225,-5.159 -11.64,-6.468 -11.44,-6.875 0.251,-0.506 10.676,1.144 19.872,7.403 m 9.622,-11.099 c 2.394,5.588 8.407,20.229 7.229,20.614 -0.664,0.209 -1.753,-4.708 -7.229,-10.043 -1.841,-1.793 -7.104,-6.93 -15.649,-9.516 -5.011,-1.517 -8.357,-1.297 -9.021,-3.168 -0.864,-2.419 3.772,-5.521 4.21,-5.818 3.596,-2.354 9.397,-3.642 13.845,-1.584 2.831,1.319 4.047,3.498 6.615,9.515 M 77.443,76.45 c 0.402,3.949 -0.614,7.007 -2.23,11.055 -3.508,8.833 -5.262,13.244 -8.883,18.865 -6.503,10.054 -16.376,20.922 -18.531,19.844 -1.578,-0.781 3.671,-6.512 3.709,-16.918 0.013,-7.04 -2.356,-14.905 -4.824,-23.089 -1.303,-4.323 -2.118,-6.347 -1.478,-9.438 0.902,-4.389 4.372,-9.053 9.998,-11.385 5.162,-2.134 12.93,-2.618 17.791,1.298 3.746,3.025 4.197,7.392 4.448,9.768 m 4.812,13.332 c 1.691,0.297 -0.539,14.817 -1.115,18.546 -1.279,8.338 -2.369,11.198 -3.697,13.662 -1.854,3.432 -4.986,9.251 -10.75,10.087 -3.709,0.528 -8.295,-1.023 -8.895,-3.256 -0.251,-0.968 -0.101,-2.211 2.229,-4.235 4.399,-3.817 5.827,-5.555 7.042,-7.15 1.416,-1.881 4.273,-5.896 8.144,-13.662 C 80.388,93.39 81.39,89.628 82.255,89.782 M 93.143,-77.572 c 5.124,11.154 3.069,23.045 1.203,23.254 -1.066,0.121 -1.141,-3.63 -5.413,-7.932 -3.207,-3.211 -6.891,-4.861 -10.237,-6.335 -8.332,-3.664 -10.111,-1.662 -11.164,-4.18 -1.165,-2.75 1.154,-5.467 2.732,-11.671 1.579,-6.193 -1.453,-9.856 0.601,-11.099 2.932,-1.782 10.951,4.422 12.041,5.28 6.716,5.269 9.585,11.264 10.237,12.683 m 16.163,-5.709 c 1.378,1.331 1.866,3.08 1.477,8.789 -0.45,6.919 -0.763,11.462 -3.332,17.886 -2.469,6.171 -6.189,12.001 -7.042,11.715 -0.814,-0.276 2.594,-5.819 2.97,-14.96 0.275,-6.798 0.514,-12.639 -2.594,-19.195 -1.152,-2.431 -2.468,-4.323 -1.478,-5.534 1.441,-1.77 7.216,-1.363 9.999,1.299 m 11.852,44.241 c 2.418,11.529 2.23,21.638 2.23,22.122 -0.25,13.64 0.965,19.965 -0.376,20.174 -1.228,0.187 -1.791,-5.247 -7.405,-13.013 -3.608,-4.983 -5.575,-5.797 -7.78,-10.407 -1.968,-4.125 -2.368,-7.578 -2.594,-9.767 -0.614,-5.819 -1.165,-11.055 2.594,-13.982 2.518,-1.968 6.79,-2.76 9.635,-1.308 2.618,1.353 3.295,4.235 3.696,6.181 m 3.233,117.965 c 0.964,4.312 3.082,6.853 1.691,8.162 -1.278,1.21 -3.935,-0.099 -8.871,-0.737 -9.134,-1.177 -15.273,1.342 -15.637,0.374 -0.35,-0.924 5.351,-2.277 10.989,-6.314 9.472,-6.798 11.927,-16.346 13.093,-15.961 0.99,0.341 -3.045,6.468 -1.265,14.476 m 3.808,-46.387 c 0.89,0.253 -0.889,8.437 -3.808,16.335 -3.296,8.91 -6.879,18.612 -16.477,26.708 -7.705,6.49 -19.207,11.902 -22.828,9.284 -1.967,-1.43 -1.353,-5.049 -1.266,-5.566 0.427,-2.541 2.243,-5.269 5.063,-6.314 2.781,-1.023 4.748,0.242 7.191,0.374 1.73,0.088 8.771,-0.11 22.403,-23.375 6.301,-10.769 8.882,-17.677 9.722,-17.446 m 14.822,-71.578 c 1.541,0.892 -10.148,20.505 -12.967,19.526 -0.965,-0.341 0.262,-2.662 -0.74,-8.459 -0.726,-4.213 -1.929,-6.15 -0.739,-7.161 1.279,-1.089 3.396,0.55 7.041,0 4.687,-0.704 6.754,-4.28 7.405,-3.906 m 6.478,7.866 c 0.827,-1.584 11.051,-22.044 0,-33.638 -6.064,-6.38 -17.842,-9.328 -21.287,-6.413 -1.792,1.517 -1.779,4.994 0,6.941 3.395,3.696 11.201,-0.341 14.597,2.673 4.586,4.069 -1.028,19.052 -7.907,19.756 -5.925,0.605 -11.05,-9.603 -16.425,-20.295 -2.581,-5.148 -3.596,-8.624 -1.817,-11.209 1.629,-2.388 4.435,-2.299 7.905,-3.74 10.538,-4.367 13.395,-17.127 13.984,-19.756 0.914,-4.081 2.893,-12.87 -3.032,-20.295 -6.039,-7.558 -18.268,-11.187 -21.288,-8.536 -1.979,1.716 -0.79,6.754 2.431,9.075 3.834,2.75 8.294,0.044 10.95,2.134 4.185,3.31 1.429,16.73 -7.906,21.89 -8.644,4.774 -19.633,0.67 -32.851,-4.268 -8.107,-3.025 -16.326,-6.215 -21.288,-13.882 -2.33,-3.608 -6.013,-11.407 -2.43,-14.949 4.386,-4.356 17.165,0.176 23.116,3.201 5.213,2.651 9.059,6.116 8.508,6.941 -0.514,0.781 -4.498,-1.474 -6.691,0 -2.305,1.551 -2.105,6.941 0.614,8.546 4.373,2.575 17.416,-3.343 17.641,-9.613 0.176,-4.972 -7.743,-8.624 -13.381,-11.221 -2.982,-1.363 -14.508,-6.379 -37.111,-5.874 -16.965,0.386 -27.189,0.617 -33.441,7.481 -4.097,4.488 -6.565,11.891 -3.659,17.622 3.847,7.568 13.832,5.797 17.642,12.276 5.7,9.702 -6.666,30.657 -19.458,30.437 -8.307,-0.132 -17.854,-9.196 -16.426,-17.083 0.789,-4.334 5.049,-9.163 10.336,-9.614 3.321,-0.275 7.405,1.132 7.906,3.212 0.689,2.816 -5.663,5.324 -4.861,6.941 0.627,1.265 5.362,1.419 8.52,-0.539 3.646,-2.277 4.849,-7.183 3.032,-10.681 -2.305,-4.444 -8.908,-5.512 -12.767,-5.335 -9.247,0.406 -16.99,8.503 -20.072,16.016 -2.406,5.851 -1.09,9.207 3.646,32.571 0,0 3.759,13.981 4.235,24.508 0.025,0.539 0.025,0.968 0.025,1.122 0,0 0.037,5.929 -2.055,11.132 -2.167,5.401 -8.971,8.151 -13.056,10.515 -8.444,4.885 -11.802,12.288 -18.518,27.083 -3.445,7.612 -10.186,22.946 -8.344,43.01 0.739,7.997 1.867,18.755 9.797,29.953 2.594,3.652 14.196,20.02 30.121,19.756 6.152,-0.11 14.446,-2.717 15.248,-7.018 0.639,-3.41 -3.383,-8.206 -7.254,-7.964 -2.744,0.176 -5.501,2.871 -5.087,4.785 0.463,2.167 4.886,2.706 4.723,3.498 -0.175,0.836 -5.212,1.375 -10.161,0.319 -1.466,-0.308 -15.837,-3.355 -17.428,-14.014 -1.065,-7.183 4.134,-14.641 10.888,-16.566 2.907,-0.836 5.287,-0.407 20.322,5.731 19.784,8.074 21.55,9.735 22.503,12.111 2.405,6.017 -1.717,13.662 -6.528,17.842 -4.974,4.301 -9.572,3.938 -9.798,6.05 -0.488,4.477 19.696,10.087 34.105,12.749 9.86,1.804 22.252,3.993 38.477,2.222 13.933,-1.518 27.439,-2.981 34.105,-12.1 4.485,-6.127 6.052,-15.961 0.726,-20.394 -4.272,-3.564 -12.993,-3.619 -14.872,-0.957 -1.19,1.683 0.013,4.873 1.804,5.412 1.805,0.55 3.245,-1.87 5.814,-1.584 2.543,0.275 4.084,2.992 4.347,3.498 2.344,4.367 -0.726,10.318 -4.711,13.706 -2.267,1.914 -4.485,2.717 -7.617,3.817 -6.165,2.167 -11.001,2.684 -16.238,0.638 -6.866,-2.684 -7.956,-9.878 -6.628,-16.566 1.805,-9.097 8.219,-13.53 11.251,-14.971 11.188,-5.324 22.314,-2.552 26.124,-1.595 8.018,2.002 17.954,6.952 17.415,11.154 -0.325,2.563 -4.335,3.135 -5.438,7.326 -0.688,2.607 -0.088,5.962 1.453,6.369 2.394,0.638 8.27,-5.544 9.072,-12.419 0.614,-5.313 -1.954,-9.614 -3.27,-11.792 -3.659,-6.116 -6.791,-5.621 -9.434,-10.835 -0.351,-0.693 -4.01,-8.195 0,-14.971 2.304,-3.883 7.216,-7.689 9.798,-6.699 2.893,1.122 3.507,8.503 0,11.473 -1.354,1.155 -2.895,1.287 -3.258,2.552 -0.514,1.782 1.717,4.499 3.621,4.455 2.869,-0.044 5.6,-6.325 6.177,-11.462 0.752,-6.842 -2.356,-11.462 -5.451,-17.842 -3.12,-6.446 -4.736,-12.265 -7.981,-23.903 -4.435,-15.884 -7.856,-28.193 -2.18,-40.15 4.786,-10.043 10.488,-8.261 16.426,-19.756 M 39.091,-44.825 c -0.488,-0.121 -0.789,-0.583 -0.626,-1.023 l 3.683,-10.142 c 0.226,-0.638 0.727,-1.166 1.391,-1.485 l 17.629,-8.438 c 0.952,-0.462 2.092,-0.462 3.045,0 l 17.628,8.438 c 0.664,0.319 1.153,0.847 1.39,1.485 l 3.672,10.142 c 0.162,0.44 -0.126,0.902 -0.614,1.034 l 0.902,2.365 0.94,-0.275 c 1.027,-0.297 2.155,-0.143 3.032,0.429 l 4.348,2.871 c 0.638,0.428 1.027,1.078 1.077,1.771 l 0.301,4.917 c 0.012,0.242 0.049,0.473 0.125,0.693 l 3.132,9.999 c 0.276,0.858 0.1,1.782 -0.489,2.508 l -3.257,4.092 c -0.351,0.44 -1.052,0.55 -1.566,0.242 l -4.773,-2.882 c -0.076,-0.055 -0.189,-0.022 -0.226,0.055 -0.013,0.022 -0.013,0.055 -0.013,0.077 l 1.404,7.865 c 0.062,0.34 -0.101,0.682 -0.413,0.891 l -4.423,2.947 c -0.314,0.209 -0.728,0.243 -1.078,0.078 L 81.967,-7.733 C 81.828,-7.799 81.666,-7.7 81.69,-7.568 l 1.028,5.599 c 0.1,0.572 0.012,1.155 -0.263,1.683 l -4.41,8.701 c -0.088,0.176 0.138,0.33 0.313,0.22 L 94.696,-2.266 c 0.288,-0.198 0.701,-0.176 0.965,0.044 l 8.294,6.985 c 0.238,0.198 0.627,-0.011 0.526,-0.297 l -3.984,-11.22 c -0.301,-0.858 -0.125,-1.793 0.488,-2.519 l 2.933,-3.421 c 0.388,-0.451 1.165,-0.407 1.49,0.077 l 13.995,21.164 c 0.339,0.55 0.527,1.177 0.539,1.804 l 0.402,20.955 c 0.012,0.561 -0.114,1.122 -0.364,1.639 l -5.413,11.099 c -0.15,0.308 -0.614,0.385 -0.877,0.143 l -8.056,-7.216 3.157,11.385 c 0.126,0.451 0.013,0.913 -0.3,1.276 L 92.528,68.233 c -0.3,0.352 -0.851,0.44 -1.265,0.198 L 67.22,55.066 c -0.414,-0.231 -0.752,-0.55 -0.978,-0.924 L 63.11,49.071 c -0.188,-0.297 -0.664,-0.297 -0.839,0 l -3.133,5.071 c -0.238,0.374 -0.564,0.693 -0.977,0.924 L 34.117,68.431 c -0.413,0.242 -0.977,0.154 -1.278,-0.198 L 16.877,49.632 c -0.313,-0.363 -0.414,-0.825 -0.301,-1.276 l 3.17,-11.385 -8.056,7.216 c -0.276,0.242 -0.739,0.165 -0.89,-0.143 L 5.4,32.945 C 5.149,32.428 5.024,31.867 5.037,31.306 L 5.438,10.351 c 0,-0.627 0.188,-1.254 0.539,-1.804 l 13.995,-21.164 c 0.313,-0.484 1.102,-0.528 1.478,-0.077 l 2.932,3.421 c 0.614,0.726 0.802,1.661 0.501,2.519 l -3.997,11.22 c -0.087,0.286 0.301,0.495 0.539,0.297 l 8.294,-6.985 c 0.263,-0.22 0.677,-0.242 0.965,-0.044 L 47.022,8.635 c 0.163,0.11 0.401,-0.044 0.313,-0.22 l -4.422,-8.701 c -0.264,-0.528 -0.351,-1.111 -0.251,-1.683 l 1.015,-5.599 C 43.702,-7.7 43.552,-7.799 43.414,-7.733 l -3.358,1.562 c -0.338,0.165 -0.764,0.131 -1.065,-0.078 l -4.435,-2.947 c -0.313,-0.209 -0.464,-0.551 -0.401,-0.891 l 1.39,-7.865 c 0,-0.033 0,-0.055 -0.012,-0.077 -0.037,-0.077 -0.138,-0.11 -0.225,-0.055 l -4.774,2.882 c -0.514,0.308 -1.203,0.198 -1.566,-0.242 l -3.245,-4.092 c -0.589,-0.726 -0.765,-1.65 -0.501,-2.508 l 3.144,-9.999 c 0.075,-0.22 0.113,-0.451 0.126,-0.693 l 0.3,-4.917 c 0.038,-0.693 0.439,-1.343 1.078,-1.771 l 4.347,-2.871 c 0.865,-0.572 2.005,-0.726 3.033,-0.429 l 0.939,0.275 0.902,-2.376 z" /></g><g
                 id="g44"
                 transform="translate(133.8672,156.0495)"><path
                   id="path46"
                   style="fill:#1d1d1b;fill-opacity:1;fill-rule:nonzero;stroke:none"
                   d="m 0,0 -11.827,3.883 c -0.978,0.319 -2.043,0.319 -3.02,0 L -26.675,0 -33.753,-3.828 c -0.188,-0.11 -0.389,0.121 -0.226,0.253 l 6.803,5.808 12.905,11.022 c 0.514,0.44 1.341,0.44 1.855,0 C -9.309,10.615 0.501,2.233 0.501,2.233 L 7.305,-3.575 C 7.468,-3.707 7.268,-3.938 7.066,-3.828 L 0,0 Z" /></g><g
                 id="g48"
                 transform="translate(99.0234,172.1535)"><path
                   id="path50"
                   style="fill:#1d1d1b;fill-opacity:1;fill-rule:nonzero;stroke:none"
                   d="M 0,0 7.668,-13.871 -5.425,-2.343 c -0.2,0.187 -0.476,0.319 -0.764,0.396 L -16.651,0.55 c -0.226,0.055 -0.414,-0.154 -0.301,-0.33 l 1.917,-3.157 c 0.301,-0.484 0.865,-0.814 1.491,-0.858 l 3.821,-0.297 c 0.452,-0.033 0.815,-0.341 0.865,-0.748 l 0.99,-7.942 c 0.037,-0.286 -0.088,-0.572 -0.339,-0.759 l -5.638,-4.312 c -0.288,-0.209 -0.714,-0.044 -0.726,0.286 l -0.138,5.808 c -0.013,0.231 -0.101,0.462 -0.276,0.638 l -8.532,8.756 c -0.188,0.198 -0.251,0.451 -0.176,0.693 l 1.955,6.204 c 0.1,0.308 0.251,0.605 0.464,0.869 0.212,0.264 0.476,0.495 0.776,0.671 l 6.967,4.224 c 0.262,0.165 0.626,0.143 0.877,-0.055 L -1.027,1.199 C -0.601,0.858 -0.25,0.451 0,0" /></g><g
                 id="g52"
                 transform="translate(100.7778,182.3615)"><path
                   id="path54"
                   style="fill:#1d1d1b;fill-opacity:1;fill-rule:nonzero;stroke:none"
                   d="m 0,0 -8.821,4.653 c -0.551,0.286 -0.714,0.913 -0.35,1.375 l 5.174,6.743 c 0.363,0.462 1.115,0.517 1.566,0.11 L 0.326,10.318 C 0.714,9.966 0.739,9.416 0.401,9.031 L -2.118,6.215 C -2.468,5.808 -2.519,5.247 -2.23,4.807 L 0.551,0.473 C 0.764,0.154 0.351,-0.187 0,0" /></g><g
                 id="g56"
                 transform="translate(97.1064,95.8904)"><path
                   id="path58"
                   style="fill:#1d1d1b;fill-opacity:1;fill-rule:nonzero;stroke:none"
                   d="m 0,0 c -0.062,0 -0.125,-0.011 -0.175,-0.032 l -0.902,2.376 15.623,4.575 c 0.514,0.154 0.903,0.539 1.003,1.013 l 1.027,4.785 c 0.113,0.583 0.013,1.187 -0.301,1.716 L 10.174,24.685 C 10.049,24.883 9.71,24.883 9.598,24.674 L 7.781,21.55 C 7.593,21.23 7.192,21.087 6.816,21.197 l -5.751,1.672 c -1.378,0.397 -2.142,1.684 -1.741,2.904 l 0.062,0.209 1.667,5.093 c 0.25,0.781 1.253,1.189 2.105,0.836 l 3.696,-1.507 c 0.4,-0.165 0.839,-0.263 1.29,-0.275 L 23.417,29.8 38.703,30.129 c 0.439,0.012 0.89,0.11 1.29,0.275 l 3.696,1.507 c 0.853,0.353 1.842,-0.055 2.106,-0.836 l 1.666,-5.093 0.062,-0.209 c 0.402,-1.22 -0.376,-2.507 -1.741,-2.904 l -5.751,-1.672 c -0.376,-0.11 -0.789,0.033 -0.965,0.353 l -1.816,3.124 c -0.126,0.209 -0.451,0.209 -0.577,0.011 L 30.559,14.433 C 30.246,13.904 30.146,13.3 30.271,12.717 l 1.027,-4.785 c 0.1,-0.474 0.476,-0.859 1.003,-1.013 L 47.925,2.344 47.022,-0.021 C 46.973,-0.011 46.909,0 46.847,0 L 23.417,1.903 0,0 Z" /></g></g></g></g><g
           transform="translate(106.6914,158.2829)"
           id="g60"><path
             id="path62"
             style="fill:none;stroke:#1d1d1b;stroke-width:1;stroke-linecap:butt;stroke-linejoin:miter;stroke-miterlimit:10;stroke-dasharray:none;stroke-opacity:1"
             d="m 0,0 -7.668,13.871 c -0.25,0.451 -0.601,0.858 -1.027,1.199 l -11.627,9.042 c -0.251,0.198 -0.615,0.22 -0.877,0.055 l -6.967,-4.224 c -0.3,-0.176 -0.563,-0.407 -0.776,-0.671 -0.213,-0.264 -0.364,-0.561 -0.464,-0.869 l -1.955,-6.204 c -0.075,-0.242 -0.012,-0.495 0.176,-0.693 l 8.532,-8.756 c 0.175,-0.176 0.263,-0.407 0.276,-0.638 l 0.138,-5.808 c 0.012,-0.33 0.438,-0.495 0.726,-0.286 l 5.638,4.312 c 0.251,0.187 0.376,0.473 0.339,0.759 l -0.99,7.942 c -0.05,0.407 -0.413,0.715 -0.865,0.748 l -3.821,0.297 c -0.626,0.044 -1.19,0.374 -1.491,0.858 l -1.917,3.157 c -0.113,0.176 0.075,0.385 0.301,0.33 l 10.462,-2.497 c 0.288,-0.077 0.564,-0.209 0.764,-0.396 L 0,0 Z" /></g><g
           transform="translate(101.3291,182.8347)"
           id="g64"><path
             id="path66"
             style="fill:none;stroke:#1d1d1b;stroke-width:1;stroke-linecap:butt;stroke-linejoin:miter;stroke-miterlimit:10;stroke-dasharray:none;stroke-opacity:1"
             d="m 0,0 -2.782,4.334 c -0.288,0.44 -0.238,1.001 0.113,1.408 l 2.519,2.816 c 0.338,0.385 0.313,0.935 -0.076,1.287 l -2.756,2.563 c -0.451,0.407 -1.203,0.352 -1.566,-0.11 L -9.723,5.555 c -0.363,-0.462 -0.2,-1.089 0.351,-1.375 l 8.821,-4.653 C -0.201,-0.66 0.213,-0.319 0,0 Z" /></g><g
           transform="translate(120.5234,125.6902)"
           id="g68"><path
             id="path70"
             style="fill:none;stroke:#1d1d1b;stroke-width:1;stroke-linecap:butt;stroke-linejoin:miter;stroke-miterlimit:10;stroke-dasharray:none;stroke-opacity:1"
             d="m 0,0 15.286,0.329 c 0.439,0.012 0.89,0.11 1.29,0.275 l 3.696,1.507 c 0.853,0.353 1.842,-0.054 2.106,-0.836 l 1.666,-5.092 0.062,-0.209 c 0.402,-1.221 -0.376,-2.508 -1.741,-2.905 l -5.751,-1.672 c -0.376,-0.11 -0.789,0.034 -0.965,0.353 l -1.816,3.124 c -0.126,0.209 -0.451,0.209 -0.577,0.011 L 7.142,-15.367 C 6.829,-15.896 6.729,-16.5 6.854,-17.083 l 1.027,-4.785 c 0.1,-0.474 0.476,-0.859 1.003,-1.013 l 15.624,-4.575 0.939,-0.275 c 1.028,-0.297 2.156,-0.143 3.032,0.428 l 4.348,2.871 c 0.639,0.429 1.027,1.078 1.077,1.772 l 0.301,4.917 c 0.013,0.242 0.05,0.472 0.125,0.692 l 3.133,9.999 c 0.275,0.859 0.1,1.782 -0.489,2.509 l -3.257,4.092 c -0.352,0.439 -1.053,0.55 -1.567,0.242 l -4.773,-2.883 c -0.075,-0.054 -0.189,-0.021 -0.226,0.056 -0.012,0.021 -0.012,0.055 -0.012,0.077 l 1.403,7.864 c 0.062,0.341 -0.101,0.683 -0.413,0.892 L 23.706,8.744 C 23.393,8.953 22.979,8.986 22.628,8.821 L 19.283,7.26 C 19.145,7.193 18.982,7.293 19.007,7.425 l 1.027,5.598 c 0.101,0.573 0.013,1.156 -0.263,1.684 l -4.41,8.701 c -0.088,0.175 0.138,0.33 0.314,0.219 l 16.338,-10.9 c 0.288,-0.199 0.701,-0.176 0.965,0.044 l 8.293,6.984 c 0.239,0.199 0.627,-0.01 0.527,-0.297 L 37.813,8.238 C 37.513,7.381 37.688,6.445 38.302,5.72 l 2.932,-3.421 c 0.388,-0.451 1.165,-0.407 1.491,0.077 L 56.72,23.54 c 0.339,0.549 0.526,1.177 0.539,1.804 l 0.401,20.954 c 0.013,0.561 -0.113,1.122 -0.363,1.64 l -5.413,11.099 c -0.151,0.308 -0.614,0.384 -0.877,0.143 l -8.057,-7.217 3.157,11.386 c 0.126,0.45 0.013,0.913 -0.299,1.276 L 29.845,83.226 c -0.301,0.352 -0.852,0.44 -1.266,0.197 L 4.536,70.059 C 4.122,69.828 3.784,69.509 3.559,69.135 L 0.427,64.063 c -0.189,-0.296 -0.664,-0.296 -0.84,0 l -3.133,5.072 c -0.237,0.374 -0.563,0.693 -0.976,0.924 l -24.044,13.364 c -0.414,0.243 -0.977,0.155 -1.278,-0.197 L -45.807,64.625 c -0.313,-0.363 -0.413,-0.826 -0.3,-1.276 l 3.169,-11.386 -8.056,7.217 c -0.276,0.241 -0.739,0.165 -0.889,-0.143 l -5.4,-11.099 c -0.251,-0.518 -0.376,-1.079 -0.364,-1.64 l 0.401,-20.954 c 0,-0.627 0.188,-1.255 0.539,-1.804 L -42.712,2.376 c 0.314,-0.484 1.103,-0.528 1.479,-0.077 l 2.931,3.421 c 0.614,0.725 0.802,1.661 0.502,2.518 l -3.997,11.22 c -0.088,0.287 0.3,0.496 0.539,0.297 l 8.294,-6.984 c 0.263,-0.22 0.676,-0.243 0.964,-0.044 l 16.339,10.9 c 0.162,0.111 0.401,-0.044 0.313,-0.219 l -4.423,-8.701 c -0.263,-0.528 -0.351,-1.111 -0.25,-1.684 l 1.015,-5.598 C -18.981,7.293 -19.132,7.193 -19.27,7.26 l -3.357,1.561 c -0.339,0.165 -0.765,0.132 -1.065,-0.077 l -4.436,-2.947 c -0.313,-0.209 -0.463,-0.551 -0.401,-0.892 l 1.391,-7.864 c 0,-0.033 0,-0.056 -0.012,-0.077 -0.038,-0.077 -0.139,-0.11 -0.226,-0.056 l -4.774,2.883 c -0.514,0.308 -1.203,0.197 -1.566,-0.242 l -3.245,-4.092 c -0.589,-0.727 -0.764,-1.65 -0.501,-2.509 l 3.145,-9.999 c 0.075,-0.22 0.112,-0.45 0.125,-0.692 l 0.301,-4.917 c 0.037,-0.694 0.438,-1.343 1.077,-1.772 l 4.348,-2.871 c 0.864,-0.571 2.005,-0.725 3.032,-0.428 l 0.94,0.275 15.623,4.575 c 0.514,0.154 0.903,0.539 1.003,1.013 l 1.027,4.785 c 0.113,0.583 0.013,1.187 -0.301,1.716 l -6.101,10.252 c -0.125,0.198 -0.464,0.198 -0.576,-0.011 l -1.817,-3.124 c -0.188,-0.319 -0.589,-0.463 -0.965,-0.353 l -5.751,1.672 c -1.378,0.397 -2.142,1.684 -1.741,2.905 l 0.062,0.209 1.667,5.092 c 0.25,0.782 1.253,1.189 2.105,0.836 l 3.696,-1.507 c 0.4,-0.165 0.839,-0.263 1.29,-0.275 L 0,0" /></g><g
           transform="translate(120.5234,97.7937)"
           id="g72"><path
             id="path74"
             style="fill:none;stroke:#1d1d1b;stroke-width:1;stroke-linecap:butt;stroke-linejoin:miter;stroke-miterlimit:10;stroke-dasharray:none;stroke-opacity:1"
             d="m 0,0 23.43,-1.903 c 0.062,0 0.126,-0.011 0.175,-0.022 0.489,-0.132 0.777,-0.594 0.615,-1.034 l -3.672,-10.142 c -0.237,-0.638 -0.727,-1.166 -1.391,-1.485 L 1.529,-23.023 c -0.953,-0.462 -2.092,-0.462 -3.045,0 l -17.629,8.437 c -0.664,0.319 -1.165,0.847 -1.39,1.485 l -3.684,10.142 c -0.163,0.44 0.138,0.902 0.627,1.023 0.05,0.022 0.113,0.033 0.175,0.033 L 0,0" /></g><g
           transform="translate(106.6914,158.2829)"
           id="g76"><path
             id="path78"
             style="fill:none;stroke:#1d1d1b;stroke-width:1;stroke-linecap:butt;stroke-linejoin:miter;stroke-miterlimit:10;stroke-dasharray:none;stroke-opacity:1"
             d="m 0,0 -6.803,-5.808 c -0.163,-0.132 0.037,-0.363 0.225,-0.253 l 7.079,3.828 11.828,3.883 c 0.977,0.319 2.042,0.319 3.02,0 l 11.827,-3.883 7.066,-3.828 c 0.201,-0.11 0.402,0.121 0.238,0.253 L 27.677,0 c 0,0 -9.81,8.382 -12.917,11.022 -0.514,0.44 -1.341,0.44 -1.855,0 L 0,0 Z" /></g><g
           transform="translate(134.3682,158.2829)"
           id="g80"><path
             id="path82"
             style="fill:none;stroke:#1d1d1b;stroke-width:1;stroke-linecap:butt;stroke-linejoin:miter;stroke-miterlimit:10;stroke-dasharray:none;stroke-opacity:1"
             d="m 0,0 7.655,13.871 c 0.251,0.451 0.602,0.858 1.04,1.199 l 11.616,9.042 c 0.25,0.198 0.613,0.22 0.889,0.055 l 6.953,-4.224 c 0.314,-0.176 0.565,-0.407 0.778,-0.671 0.213,-0.264 0.376,-0.561 0.475,-0.869 l 1.955,-6.204 c 0.076,-0.242 0.013,-0.495 -0.175,-0.693 L 22.653,2.75 C 22.478,2.574 22.378,2.343 22.378,2.112 L 22.24,-3.696 c -0.012,-0.33 -0.451,-0.495 -0.727,-0.286 L 15.875,0.33 c -0.251,0.187 -0.376,0.473 -0.338,0.759 l 0.977,7.942 c 0.05,0.407 0.414,0.715 0.877,0.748 l 3.809,0.297 c 0.639,0.044 1.202,0.374 1.49,0.858 l 1.93,3.157 c 0.113,0.176 -0.075,0.385 -0.301,0.33 L 13.845,11.924 C 13.557,11.847 13.294,11.715 13.081,11.528 L 0,0 Z" /></g><g
           transform="translate(139.7187,182.8347)"
           id="g84"><path
             id="path86"
             style="fill:none;stroke:#1d1d1b;stroke-width:1;stroke-linecap:butt;stroke-linejoin:miter;stroke-miterlimit:10;stroke-dasharray:none;stroke-opacity:1"
             d="M 0,0 2.794,4.334 C 3.082,4.774 3.032,5.335 2.669,5.742 L 0.163,8.558 C -0.176,8.943 -0.15,9.493 0.226,9.845 l 2.768,2.563 c 0.439,0.407 1.203,0.352 1.554,-0.11 L 9.735,5.555 C 10.086,5.093 9.936,4.466 9.384,4.18 L 0.563,-0.473 C 0.2,-0.66 -0.201,-0.319 0,0 Z" /></g><g
           transform="translate(193.0928,169.4148)"
           id="g88"><path
             id="path90"
             style="fill:none;stroke:#1d1d1b;stroke-width:1;stroke-linecap:butt;stroke-linejoin:miter;stroke-miterlimit:10;stroke-dasharray:none;stroke-opacity:1"
             d="m 0,0 c 3.245,11.638 4.861,17.457 7.981,23.903 3.095,6.38 6.203,11 5.451,17.842 C 12.855,46.882 10.124,53.163 7.255,53.207 5.351,53.251 3.12,50.534 3.634,48.752 3.997,47.487 5.538,47.355 6.892,46.2 c 3.507,-2.97 2.893,-10.351 0,-11.473 -2.581,-0.99 -7.494,2.816 -9.798,6.699 -4.01,6.776 -0.351,14.278 0,14.971 2.643,5.214 5.775,4.719 9.434,10.835 1.316,2.178 3.884,6.479 3.27,11.792 C 8.996,85.899 3.12,92.081 0.727,91.443 -0.814,91.036 -1.415,87.681 -0.727,85.074 0.376,80.883 4.386,80.311 4.711,77.748 5.25,73.546 -4.686,68.596 -12.704,66.594 c -3.81,-0.957 -14.936,-3.729 -26.124,1.595 -3.032,1.441 -9.446,5.874 -11.251,14.971 -1.328,6.688 -0.238,13.882 6.628,16.566 5.237,2.046 10.073,1.529 16.238,-0.638 3.132,-1.1 5.35,-1.903 7.617,-3.817 3.985,-3.388 7.055,-9.339 4.711,-13.706 -0.262,-0.506 -1.803,-3.223 -4.347,-3.498 -2.569,-0.286 -4.009,2.134 -5.814,1.584 -1.791,-0.539 -2.994,-3.729 -1.804,-5.412 1.879,-2.662 10.6,-2.607 14.872,0.957 5.326,4.433 3.759,14.267 -0.726,20.394 -6.666,9.119 -20.172,10.582 -34.105,12.1 -16.225,1.771 -28.617,-0.418 -38.477,-2.222 -14.409,-2.662 -34.593,-8.272 -34.105,-12.749 0.226,-2.112 4.824,-1.749 9.798,-6.05 4.811,-4.18 8.933,-11.825 6.528,-17.842 -0.953,-2.376 -2.719,-4.037 -22.503,-12.111 -15.035,-6.138 -17.415,-6.567 -20.322,-5.731 -6.754,1.925 -11.953,9.383 -10.888,16.566 1.591,10.659 15.962,13.706 17.428,14.014 4.949,1.056 9.986,0.517 10.162,-0.319 0.162,-0.792 -4.261,-1.331 -4.724,-3.498 -0.414,-1.914 2.343,-4.609 5.087,-4.785 3.871,-0.242 7.893,4.554 7.254,7.964 -0.802,4.301 -9.096,6.908 -15.248,7.018 -15.925,0.264 -27.527,-16.104 -30.12,-19.756 -7.931,-11.198 -9.059,-21.956 -9.798,-29.953 -1.842,-20.064 4.899,-35.398 8.344,-43.01 6.716,-14.795 10.074,-22.198 18.518,-27.082 4.085,-2.365 10.889,-5.115 13.056,-10.516 2.092,-5.203 2.055,-11.132 2.055,-11.132 0,-0.154 0,-0.583 -0.025,-1.122 -0.476,-10.527 -4.235,-24.508 -4.235,-24.508 -4.736,-23.364 -6.052,-26.72 -3.646,-32.571 3.082,-7.513 10.825,-15.609 20.072,-16.016 3.859,-0.176 10.462,0.891 12.767,5.335 1.817,3.498 0.614,8.404 -3.032,10.681 -3.158,1.958 -7.893,1.804 -8.52,0.539 -0.802,-1.617 5.55,-4.125 4.862,-6.941 -0.502,-2.08 -4.586,-3.487 -7.907,-3.212 -5.287,0.451 -9.547,5.28 -10.336,9.614 -1.428,7.887 8.119,16.951 16.426,17.083 12.792,0.22 25.158,-20.735 19.458,-30.437 -3.809,-6.479 -13.795,-4.708 -17.641,-12.276 -2.907,-5.731 -0.439,-13.134 3.658,-17.622 6.252,-6.864 16.476,-7.095 33.441,-7.48 22.603,-0.506 34.129,4.51 37.111,5.874 5.638,2.596 13.557,6.248 13.381,11.22 -0.225,6.27 -13.268,12.188 -17.641,9.614 -2.719,-1.606 -2.919,-6.996 -0.614,-8.547 2.193,-1.474 6.177,0.781 6.691,0 0.551,-0.825 -3.295,-4.29 -8.508,-6.941 -5.951,-3.025 -18.73,-7.557 -23.116,-3.201 -3.583,3.542 0.1,11.341 2.43,14.949 4.962,7.667 13.181,10.857 21.288,13.882 13.218,4.939 24.207,9.042 32.851,4.268 9.335,-5.16 12.091,-18.579 7.906,-21.89 -2.656,-2.09 -7.116,0.616 -10.95,-2.134 -3.22,-2.321 -4.41,-7.359 -2.43,-9.075 3.019,-2.651 15.248,0.979 21.287,8.536 5.925,7.425 3.946,16.214 3.032,20.295 -0.589,2.629 -3.446,15.389 -13.984,19.756 -3.47,1.441 -6.276,1.352 -7.905,3.74 -1.779,2.585 -0.764,6.061 1.817,11.209 5.375,10.692 10.5,20.9 16.425,20.295 6.879,-0.704 12.493,-15.686 7.907,-19.756 -3.396,-3.014 -11.202,1.023 -14.597,-2.673 -1.779,-1.947 -1.792,-5.423 0,-6.941 3.445,-2.915 15.223,0.033 21.287,6.413 11.051,11.594 0.827,32.054 0,33.638 C 8.308,-48.411 2.606,-50.193 -2.18,-40.15 -7.855,-28.193 -4.435,-15.884 0,0 Z" /></g><g
           transform="translate(99.4619,230.5857)"
           id="g92"><path
             id="path94"
             style="fill:none;stroke:#1d1d1b;stroke-width:1;stroke-linecap:butt;stroke-linejoin:miter;stroke-miterlimit:10;stroke-dasharray:none;stroke-opacity:1"
             d="m 0,0 c -0.551,0.066 -0.075,2.772 -0.727,8.294 -0.952,8.096 -1.465,12.54 -5.074,15.928 -2.97,2.783 -6.164,3.102 -6.54,5.731 -0.326,2.365 1.942,4.268 2.18,4.466 2.28,1.848 5.939,2.178 8.345,1.276 C 4.411,33.341 4.122,22.011 3.997,16.896 3.771,7.975 0.952,-0.11 0,0 Z" /></g><g
           transform="translate(62.501,83.197)"
           id="g96"><path
             id="path98"
             style="fill:none;stroke:#1d1d1b;stroke-width:1;stroke-linecap:butt;stroke-linejoin:miter;stroke-miterlimit:10;stroke-dasharray:none;stroke-opacity:1"
             d="m 0,0 c -1.98,1.936 2.355,5.621 4.209,13.738 2.569,11.276 -2.48,18.679 0.602,20.075 2.28,1.045 7.505,-1.924 9.635,-5.807 2.794,-5.105 -1.303,-8.933 1.804,-12.684 2.531,-3.068 5.952,-1.33 9.021,-4.752 2.644,-2.947 0.853,-5.015 3.621,-10.043 2.206,-4.014 5.175,-6.006 4.812,-6.346 C 33.152,-6.325 28.028,-0.088 19.859,1.584 9.948,3.607 2.556,-2.52 0,0 Z" /></g><g
           transform="translate(99.2114,69.9861)"
           id="g100"><path
             id="path102"
             style="fill:none;stroke:#1d1d1b;stroke-width:1;stroke-linecap:butt;stroke-linejoin:miter;stroke-miterlimit:10;stroke-dasharray:none;stroke-opacity:1"
             d="m 0,0 c -2.343,-2.123 4.197,-7.029 4.223,-17.446 0,-1.695 -0.163,-11 -7.23,-17.963 -5.224,-5.159 -11.639,-6.468 -11.439,-6.875 0.251,-0.506 10.675,1.143 19.871,7.403 0.965,0.659 14.496,16.5 9.611,28.006 C 11.552,1.298 2.919,2.629 0,0 Z" /></g><g
           transform="translate(121.4883,44.6198)"
           id="g104"><path
             id="path106"
             style="fill:none;stroke:#1d1d1b;stroke-width:1;stroke-linecap:butt;stroke-linejoin:miter;stroke-miterlimit:10;stroke-dasharray:none;stroke-opacity:1"
             d="m 0,0 c -0.664,0.209 -1.754,-4.708 -7.229,-10.043 -1.842,-1.793 -7.104,-6.93 -15.649,-9.516 -5.012,-1.517 -8.357,-1.297 -9.021,-3.168 -0.865,-2.419 3.771,-5.521 4.21,-5.818 3.595,-2.354 9.397,-3.642 13.844,-1.584 2.832,1.319 4.047,3.498 6.616,9.515 C -4.836,-15.026 1.178,-0.385 0,0 Z" /></g><g
           transform="translate(125.3721,67.9177)"
           id="g108"><path
             id="path110"
             style="fill:none;stroke:#1d1d1b;stroke-width:1;stroke-linecap:butt;stroke-linejoin:miter;stroke-miterlimit:10;stroke-dasharray:none;stroke-opacity:1"
             d="m 0,0 c -1.165,-2.75 1.153,-5.467 2.731,-11.671 1.58,-6.193 -1.453,-9.856 0.602,-11.099 2.932,-1.782 10.951,4.422 12.041,5.28 6.716,5.269 9.585,11.264 10.236,12.683 5.124,11.154 3.07,23.045 1.203,23.254 -1.065,0.121 -1.14,-3.63 -5.413,-7.931 C 18.193,7.304 14.51,5.654 11.164,4.18 2.832,0.517 1.053,2.519 0,0 Z" /></g><g
           transform="translate(158.249,95.7917)"
           id="g112"><path
             id="path114"
             style="fill:none;stroke:#1d1d1b;stroke-width:1;stroke-linecap:butt;stroke-linejoin:miter;stroke-miterlimit:10;stroke-dasharray:none;stroke-opacity:1"
             d="m 0,0 c -0.814,-0.275 2.594,-5.819 2.97,-14.96 0.275,-6.798 0.513,-12.639 -2.594,-19.195 -1.152,-2.431 -2.468,-4.323 -1.479,-5.533 1.442,-1.771 7.217,-1.364 9.999,1.298 1.378,1.331 1.867,3.08 1.478,8.789 -0.45,6.919 -0.764,11.462 -3.332,17.886 C 4.573,-5.544 0.853,0.286 0,0 Z" /></g><g
           transform="translate(180.8516,143.9387)"
           id="g116"><path
             id="path118"
             style="fill:none;stroke:#1d1d1b;stroke-width:1;stroke-linecap:butt;stroke-linejoin:miter;stroke-miterlimit:10;stroke-dasharray:none;stroke-opacity:1"
             d="m 0,0 c -1.228,0.187 -1.791,-5.247 -7.404,-13.013 -3.609,-4.983 -5.575,-5.797 -7.781,-10.406 -1.967,-4.125 -2.368,-7.579 -2.593,-9.768 -0.615,-5.819 -1.165,-11.055 2.593,-13.981 2.518,-1.969 6.79,-2.761 9.635,-1.309 2.618,1.353 3.295,4.235 3.696,6.182 2.418,11.528 2.23,21.637 2.23,22.121 C 0.126,-6.534 1.341,-0.209 0,0 Z" /></g><g
           transform="translate(187.8936,121.1687)"
           id="g120"><path
             id="path122"
             style="fill:none;stroke:#1d1d1b;stroke-width:1;stroke-linecap:butt;stroke-linejoin:miter;stroke-miterlimit:10;stroke-dasharray:none;stroke-opacity:1"
             d="m 0,0 c -0.965,-0.341 0.263,-2.662 -0.739,-8.459 -0.727,-4.213 -1.93,-6.149 -0.74,-7.161 1.279,-1.089 3.396,0.55 7.041,0 4.687,-0.704 6.754,-4.279 7.406,-3.905 C 14.509,-18.634 2.819,0.979 0,0 Z" /></g><g
           transform="translate(57.8398,140.6828)"
           id="g124"><path
             id="path126"
             style="fill:none;stroke:#1d1d1b;stroke-width:1;stroke-linecap:butt;stroke-linejoin:miter;stroke-miterlimit:10;stroke-dasharray:none;stroke-opacity:1"
             d="m 0,0 c -0.639,-0.749 -5.901,1.254 -10.374,4.235 -2.293,1.518 -7.618,5.456 -13.344,16.258 -1.917,3.619 -4.924,9.977 -7.041,18.865 -3.17,13.354 -1.328,27.324 0,39.369 0.276,2.42 1.741,4.279 3.709,5.203 3.195,1.496 7.041,-3.3 12.228,-8.129 3.658,-3.421 1.216,-7.282 -0.364,-17.567 -2.066,-13.387 -3.094,-20.086 -2.23,-27.335 0.577,-4.785 1.354,-11.308 5.927,-18.216 C -6.34,4.917 0.79,0.924 0,0 Z" /></g><g
           transform="translate(105.6392,266.8967)"
           id="g128"><path
             id="path130"
             style="fill:none;stroke:#1d1d1b;stroke-width:1;stroke-linecap:butt;stroke-linejoin:miter;stroke-miterlimit:10;stroke-dasharray:none;stroke-opacity:1"
             d="m 0,0 c -1.579,-0.781 3.671,-6.512 3.708,-16.918 0.013,-7.04 -2.355,-14.905 -4.823,-23.089 -1.303,-4.323 -2.118,-6.347 -1.479,-9.438 0.903,-4.389 4.373,-9.053 9.999,-11.385 5.162,-2.134 12.929,-2.618 17.791,1.298 3.746,3.025 4.197,7.392 4.448,9.768 0.401,3.949 -0.614,7.007 -2.23,11.055 -3.508,8.833 -5.262,13.244 -8.883,18.865 C 12.028,-9.79 2.155,1.078 0,0 Z" /></g><g
           transform="translate(140.0947,230.4646)"
           id="g132"><path
             id="path134"
             style="fill:none;stroke:#1d1d1b;stroke-width:1;stroke-linecap:butt;stroke-linejoin:miter;stroke-miterlimit:10;stroke-dasharray:none;stroke-opacity:1"
             d="m 0,0 c -0.865,-0.154 -1.867,3.608 -7.042,13.992 -3.871,7.766 -6.728,11.781 -8.144,13.662 -1.215,1.595 -2.643,3.333 -7.042,7.15 -2.33,2.024 -2.48,3.267 -2.229,4.235 0.601,2.233 5.186,3.784 8.895,3.256 5.764,-0.836 8.896,-6.655 10.75,-10.087 1.329,-2.464 2.418,-5.324 3.697,-13.662 C -0.539,14.817 1.691,0.297 0,0 Z" /></g><g
           transform="translate(55.8477,213.6677)"
           id="g136"><path
             id="path138"
             style="fill:none;stroke:#1d1d1b;stroke-width:1;stroke-linecap:butt;stroke-linejoin:miter;stroke-miterlimit:10;stroke-dasharray:none;stroke-opacity:1"
             d="m 0,0 c -1.779,0.121 -3.733,-7.656 -5.062,-12.98 -3.195,-12.694 -5.124,-20.405 -1.691,-22.264 2.881,-1.573 9.108,1.265 11.828,5.192 1.979,2.849 1.804,5.83 1.691,7.788 -0.188,3.256 -1.266,5.038 -2.531,8.162 C 0.626,-5.214 1.454,-0.088 0,0 Z" /></g><g
           transform="translate(93.4731,227.0329)"
           id="g140"><path
             id="path142"
             style="fill:none;stroke:#1d1d1b;stroke-width:1;stroke-linecap:butt;stroke-linejoin:miter;stroke-miterlimit:10;stroke-dasharray:none;stroke-opacity:1"
             d="m 0,0 c -0.626,1.034 -8.482,-0.946 -15.637,-4.829 -5.199,-2.816 -9.923,-5.379 -11.84,-10.384 -2.054,-5.368 -0.476,-12.43 2.957,-13.365 3.621,-0.968 9.247,4.829 11.84,9.647 2.293,4.279 1.015,5.599 3.383,9.647 C -5.601,-2.926 0.564,-0.935 0,0 Z" /></g><g
           transform="translate(186.0391,173.2209)"
           id="g144"><path
             id="path146"
             style="fill:none;stroke:#1d1d1b;stroke-width:1;stroke-linecap:butt;stroke-linejoin:miter;stroke-miterlimit:10;stroke-dasharray:none;stroke-opacity:1"
             d="m 0,0 c -0.84,-0.231 -3.421,6.677 -9.723,17.446 -13.631,23.265 -20.673,23.463 -22.402,23.375 -2.443,-0.132 -4.41,-1.397 -7.191,-0.374 -2.82,1.045 -4.636,3.773 -5.063,6.314 -0.087,0.517 -0.701,4.136 1.266,5.566 3.621,2.618 15.123,-2.794 22.828,-9.284 C -10.688,34.947 -7.104,25.245 -3.809,16.335 -0.89,8.437 0.89,0.253 0,0 Z" /></g><g
           transform="translate(159.4141,227.407)"
           id="g148"><path
             id="path150"
             style="fill:none;stroke:#1d1d1b;stroke-width:1;stroke-linecap:butt;stroke-linejoin:miter;stroke-miterlimit:10;stroke-dasharray:none;stroke-opacity:1"
             d="m 0,0 c -0.351,-0.924 5.351,-2.277 10.988,-6.314 9.473,-6.798 11.928,-16.346 13.094,-15.961 0.989,0.341 -3.045,6.468 -1.266,14.476 0.965,4.312 3.082,6.853 1.692,8.162 C 23.229,1.573 20.573,0.264 15.637,-0.374 6.503,-1.551 0.364,0.968 0,0 Z" /></g></g></g></g></svg>